<svg width="14" height="14" viewBox="0 0 14 14" fill="none" xmlns="http://www.w3.org/2000/svg">
<path d="M6.86804 3.40626C4.91887 3.40626 3.34667 5.00938 3.34667 6.99688C3.34667 8.98438 4.91887 10.5875 6.86804 10.5875C8.81721 10.5875 10.3894 8.98438 10.3894 6.99688C10.3894 5.00938 8.81721 3.40626 6.86804 3.40626ZM6.86804 9.33126C5.60844 9.33126 4.57869 8.28438 4.57869 6.99688C4.57869 5.70938 5.60537 4.66251 6.86804 4.66251C8.13071 4.66251 9.1574 5.70938 9.1574 6.99688C9.1574 8.28438 8.12765 9.33126 6.86804 9.33126ZM11.3548 3.25938C11.3548 3.72501 10.987 4.09688 10.5335 4.09688C10.0768 4.09688 9.71212 3.72188 9.71212 3.25938C9.71212 2.79688 10.0799 2.42188 10.5335 2.42188C10.987 2.42188 11.3548 2.79688 11.3548 3.25938ZM13.6871 4.10938C13.635 2.98751 13.3837 1.99376 12.5776 1.17501C11.7747 0.356256 10.8001 0.100006 9.69986 0.0437561C8.56591 -0.0218689 5.16712 -0.0218689 4.03317 0.0437561C2.93599 0.0968811 1.96141 0.353131 1.15538 1.17188C0.349359 1.99063 0.101115 2.98438 0.0459502 4.10626C-0.0184092 5.26251 -0.0184092 8.72813 0.0459502 9.88438C0.0980506 11.0063 0.349359 12 1.15538 12.8188C1.96141 13.6375 2.93293 13.8938 4.03317 13.95C5.16712 14.0156 8.56591 14.0156 9.69986 13.95C10.8001 13.8969 11.7747 13.6406 12.5776 12.8188C13.3806 12 13.6319 11.0063 13.6871 9.88438C13.7514 8.72813 13.7514 5.26563 13.6871 4.10938ZM12.2221 11.125C11.9831 11.7375 11.5203 12.2094 10.9166 12.4563C10.0125 12.8219 7.86715 12.7375 6.86804 12.7375C5.86894 12.7375 3.72056 12.8188 2.81953 12.4563C2.21885 12.2125 1.75607 11.7406 1.51396 11.125C1.15538 10.2031 1.23813 8.01563 1.23813 6.99688C1.23813 5.97813 1.15845 3.78751 1.51396 2.86876C1.75301 2.25626 2.21578 1.78438 2.81953 1.53751C3.72363 1.17188 5.86894 1.25626 6.86804 1.25626C7.86715 1.25626 10.0155 1.17501 10.9166 1.53751C11.5172 1.78126 11.98 2.25313 12.2221 2.86876C12.5807 3.79063 12.498 5.97813 12.498 6.99688C12.498 8.01563 12.5807 10.2063 12.2221 11.125Z" fill="black"/>
</svg>
