<svg width="15" height="14" viewBox="0 0 15 14" fill="none" xmlns="http://www.w3.org/2000/svg">
<path d="M13.3334 3.74062C13.3421 3.88125 13.3421 4.025 13.3421 4.16563C13.3421 8.5 10.2772 13.4969 4.67568 13.4969C2.94878 13.4969 1.34669 12.9594 0 12.025C0.243797 12.0562 0.481789 12.0656 0.734293 12.0656C2.15934 12.0656 3.4683 11.5469 4.51605 10.6656C3.17807 10.6344 2.05486 9.69062 1.66885 8.39062C1.8575 8.42188 2.04615 8.44063 2.24351 8.44063C2.51633 8.44063 2.78915 8.4 3.04456 8.32812C1.64853 8.025 0.603687 6.70312 0.603687 5.10938V5.06875C1.01002 5.3125 1.4802 5.46562 1.9794 5.48438C1.15804 4.89688 0.621102 3.89062 0.621102 2.75312C0.621102 2.14375 0.772023 1.58437 1.03614 1.09687C2.53665 3.0875 4.78887 4.3875 7.31681 4.52812C7.27037 4.28437 7.24135 4.03125 7.24135 3.77812C7.24135 1.97187 8.59964 0.5 10.2859 0.5C11.1624 0.5 11.9548 0.896875 12.512 1.53437C13.1999 1.39375 13.8616 1.11875 14.445 0.74375C14.2186 1.50625 13.7368 2.14375 13.107 2.55C13.7194 2.47812 14.3144 2.29688 14.86 2.04375C14.445 2.69375 13.9254 3.27187 13.3334 3.74062Z" fill="black"/>
</svg>
