<svg width="16" height="16" viewBox="0 0 16 16" fill="none" xmlns="http://www.w3.org/2000/svg">
<path d="M15.2695 3.87812C15.0945 3.1375 14.5806 2.55625 13.9278 2.35938C12.7445 2 8.00005 2 8.00005 2C8.00005 2 3.25561 2 2.07227 2.35938C1.4195 2.55625 0.905607 3.1375 0.730607 3.87812C0.41394 5.21875 0.41394 8.0125 0.41394 8.0125C0.41394 8.0125 0.41394 10.8063 0.730607 12.1469C0.905607 12.8875 1.4195 13.4437 2.07227 13.6406C3.25561 14 8.00005 14 8.00005 14C8.00005 14 12.7445 14 13.9278 13.6406C14.5806 13.4437 15.0945 12.8844 15.2695 12.1469C15.5862 10.8063 15.5862 8.0125 15.5862 8.0125C15.5862 8.0125 15.5862 5.21875 15.2695 3.87812ZM6.45005 10.55V5.475L10.4139 8.0125L6.45005 10.55Z" fill="black"/>
</svg>
